<?xml version="1.0" encoding="UTF-8"?>
<!-- Generator: Adobe Illustrator 12.0.1, SVG Export Plug-In . SVG Version: 6.00 Build 51448)  -->
<!DOCTYPE svg PUBLIC "-//W3C//DTD SVG 1.1//EN" "http://www.w3.org/Graphics/SVG/1.1/DTD/svg11.dtd" [
	<!ENTITY ns_svg "http://www.w3.org/2000/svg">
	<!ENTITY ns_xlink "http://www.w3.org/1999/xlink">
]>
<svg version="1.1" id="Layer_1" xmlns="http://www.w3.org/2000/svg" xmlns:xlink="http://www.w3.org/1999/xlink" width="571.896" height="633.333" viewBox="0 0 571.896 633.333" overflow="visible" enable-background="new 0 0 571.896 633.333" xml:space="preserve">
<path fill-rule="evenodd" clip-rule="evenodd" d="M531.432,98.157c0.145,27.715-15.156,52.254-31.323,70.009  c-23.385,25.478-59.327,41.934-87.764,55.357c48.067-4.186,109.344-16.961,135.76-53.264c13.208-18.188,27.426-45.903,22.951-75.206  c-3.825-25.261-29.808-40.273-57.379-39.696C521.184,69.287,531.288,78.453,531.432,98.157L531.432,98.157z M265.182,290.357  c2.598,2.237,4.475,10.754,8.299,8.3c-5.701-7.361,1.372-17.466,1.083-26.055c22.374-25.839,50.738-43.017,82.495-59.544  c31.396-16.455,65.102-29.808,89.785-53.265c0.217-1.299,1.588-2.165-1.083-2.093C390.908,202.594,269.367,195.664,265.182,290.357  L265.182,290.357z M203.544,269.427c-34.644,7.507-95.774,4.619-123.201,20.931c-19.776,16.455,3.104,28.148,11.476,43.81  c8.372,15.734,13.568,35.582,19.848,53.265c6.352,17.899,12.27,36.448,18.838,54.348c9.815,27.138,20.858,54.131,26.055,83.506  c3.537,19.775,0.938,37.098,13.568,45.975c31.035,21.797,103.859,14.724,137.854,1.011c4.547-10.394,9.094-20.786,10.393-34.428  c21.292-0.505,23.962-23.456,35.51-35.51c5.702-5.99,17.178-11.836,26.128-18.837c24.25-18.91,57.956-48.357,60.554-84.589  c1.443-20.064-6.856-44.531-25.044-52.182c-35.077-14.796-27.932,29.88-40.707,40.706c2.382-16.672,8.806-29.447,8.301-49.078  c-0.65-5.197-9.527-2.237-10.394-7.29c9.311-9.599,29.592-7.578,27.138-26.127c-1.371-10.177-19.126-18.26-33.417-22.951  c-24.034-7.867-49.367-10.683-77.299-9.383c-4.908,3.753-9.671,7.723-10.393,15.661c24.611,4.908,58.389,6.352,83.506,7.29  c-18.982-7.866-45.831-7.794-67.845-12.558c31.829,0.648,63.875,2.309,80.402,16.744c-24.034,23.673-80.186,23.096-130.563,20.858  c-36.736-1.588-89.496,1.443-121.107-8.372c-8.806-2.671-23.963-7.29-17.756-19.776c4.259,0.289,4.187,7.29,9.455,8.3  c3.465,0.723,14.579-4.835,20.858-6.279c23.673-5.124,52.615-3.464,75.134-6.207C209.607,284.8,211.339,267.767,203.544,269.427  L203.544,269.427z M482.354,15.662c10.682,25.478-1.299,60.915-10.465,72.029c-22.303,27.066-56.802,44.1-100.251,56.441  c-20.425,5.773-42.077,9.311-61.564,16.672c-31.829,12.053-68.927,30.313-82.495,58.533c-12.919,26.921-24.034,84.732,10.465,91.878  c0.217-7.939-4.402-13.136-5.268-21.94c-3.32-33.994,10.609-59.256,26.127-76.217c19.486-15.229,44.748-21.652,74.122-27.138  c40.707-7.65,81.702-18.981,110.644-37.603c16.022-10.32,27.715-22.879,44.893-33.417c-10.177,33.345-36.015,50.955-63.658,67.845  c-14.651,9.021-30.024,19.053-43.882,26.127c-14.435,7.361-33.705,13.135-45.902,21.94c-3.681,2.671-10.682,8.372-8.372,10.466  c78.381-21.075,181.662-45.037,190.034-134.75c1.516-16.527-0.433-27.715-7.289-35.51c-2.454,12.559-5.99,29.52-14.651,32.406  c5.052-20.786,20.064-46.913,11.476-71.02c-5.053-14.291-17.972-25.188-31.323-31.396c-1.011,0-1.228-0.794-2.094-1.011  C476.651,7.506,480.404,11.043,482.354,15.662L482.354,15.662z M100.19,610.956c31.323,17.466,89.353,24.25,143.05,21.94  c33.777-1.516,72.318,1.732,94.981-13.568C261.861,632.824,167.529,621.782,100.19,610.956L100.19,610.956z M93.911,316.412  c8.517,6.641,40.273,10.754,49.079,5.269c-27.21,0.072-43.088-11.259-55.357-26.127c-0.65,0-1.372,0-2.021,0  C83.807,302.121,88.787,312.371,93.911,316.412L93.911,316.412z M147.176,340.446c54.564,7.29,132.945,11.043,178.56-3.104  c-77.587,5.196-172.857,6.496-228.648-15.662C101.706,338.064,127.545,337.848,147.176,340.446L147.176,340.446z M120.039,354.016  c20.569,3.392,48.356,5.269,69.937,4.186c-17.25-10.249-49.151-5.846-69.937-12.559  C120.039,348.458,120.039,351.272,120.039,354.016L120.039,354.016z M121.049,369.677c15.301,5.99,38.613,3.897,59.544,4.187  c-2.888-9.238-12.847-4.98-21.94-5.197c-12.054-0.36-28.365-6.64-37.604-7.289C121.049,364.119,121.049,366.935,121.049,369.677  L121.049,369.677z M379,465.813c14.579-22.086,51.604-40.923,47.996-77.299c-0.722-7.507-5.63-15.301-11.476-16.745  c-26.488-6.423-27.065,26.922-45.976,31.324c-11.692,38.758-32.695,73.762-41.717,111.798  C340.242,493.889,354.172,474.402,379,465.813L379,465.813z M125.234,384.328c15.085,9.166,39.553,2.671,61.638,4.187  c-14.29-9.383-42.583-4.764-61.638-9.383C125.234,380.864,125.234,382.596,125.234,384.328L125.234,384.328z M130.504,405.187  c20.281-2.021,47.707,3.825,61.564-2.093c-18.982-5.053-45.325-2.671-63.658-8.3C127.689,399.629,129.998,401.506,130.504,405.187  L130.504,405.187z M136.711,421.932c20.281-0.434,39.623,2.525,56.439,0c-14.29-8.445-39.479-5.847-59.543-8.373  C132.741,418.25,136.061,418.756,136.711,421.932L136.711,421.932z M142.99,438.604c14.074-0.505,38.107,5.413,46.985-3.104  c-15.878-1.877-36.593-4.475-51.172-4.187C141.041,432.901,141.835,435.933,142.99,438.604L142.99,438.604z M149.27,456.358  c13.857-2.165,36.664,4.691,43.881-4.187c-12.846-3.825-34.282-4.691-46.984-5.196C147.898,449.43,148.836,452.605,149.27,456.358  L149.27,456.358z M155.549,473.103c14.506,2.093,32.479,1.083,45.902-1.082c-9.455-9.889-34.5-0.938-47.996-8.301  C152.95,468.051,156.486,468.267,155.549,473.103L155.549,473.103z M167.023,493.961c16.313-2.093,38.253,1.371,47.996-7.289  c-16.744-1.66-36.809-0.072-52.182-3.176C162.116,489.125,165.941,490.208,167.023,493.961L167.023,493.961z M170.127,509.623  c15.301,0.577,39.841,2.598,49.079-6.279c-15.157-2.165-35.149,0.361-50.089-2.093C166.735,503.776,171.427,505.148,170.127,509.623  L170.127,509.623z M173.303,524.274c12.631,4.402,35.943,4.979,44.893-3.176c-14.29-2.093-30.097-2.599-44.893-4.114  C173.303,519.366,173.303,521.82,173.303,524.274L173.303,524.274z M175.396,536.761c9.455,7.145,37.675,9.671,49.078,2.093  c-13.496-4.908-33.056-3.825-49.078-6.207C175.396,534.018,175.396,535.389,175.396,536.761L175.396,536.761z M175.396,558.701  c19.054,6.496,56.584,8.878,81.412,5.269c4.619-0.722,8.806-1.804,11.477-5.269c-35.438,0-68.566-2.454-96.064-10.393  C171.715,553.36,175.469,554.082,175.396,558.701L175.396,558.701z M407.147,390.607c-21.219,14.651-38.901,32.768-42.799,64.74  c13.208-4.907,22.879-13.28,32.334-21.94c0.722-6.929,5.196-10.177,10.465-12.559c3.393-8.3,10.61-17.61,7.29-29.23  C410.829,392.484,410.468,390.103,407.147,390.607L407.147,390.607z"/>
<path fill-rule="evenodd" clip-rule="evenodd" d="M371.638,530.337c13.353,1.877,25.694,4.908,36.016,9.96  c-25.55,4.836-54.853-14.651-76.288-1.082c17.971,6.135,44.098,3.969,59.472,12.558c-20.065,4.908-45.903-8.805-59.472,4.114  c11.403,2.887,25.188,3.464,35.51,7.361c-12.631,5.485-37.964-1.804-48.068,6.279c7.289,6.279,21.436,1.371,32.406,2.094  c-1.443,7.578-13.785,4.33-20.858,6.278c37.819,2.021,90.29-9.382,112.736-30.313c0.217-5.341-4.114-6.352-4.187-11.476  c6.641,2.31,10.754,9.815,8.372,18.765c-2.237,8.156-24.033,15.373-37.603,18.838c-50.594,12.919-120.459,23.384-187.221,23.096l0,0  v0.433c-60.049-1.731-120.747-11.187-166.072-22.879c-13.568-3.465-35.365-10.682-37.531-18.766  c-2.525-8.949,1.66-16.455,8.301-18.765c-0.072,5.124-4.33,6.063-4.187,11.403C45.41,569.239,97.881,580.643,135.7,578.55  c-7.073-1.877-19.487,1.371-20.858-6.279c10.971-0.722,25.189,4.258,32.334-2.094c-10.032-8.011-35.365-0.794-47.924-6.207  c10.249-3.969,24.034-4.475,35.438-7.361c-13.568-12.991-39.334,0.794-59.471-4.114c15.445-8.589,41.572-6.495,59.471-12.558  c-21.436-13.569-50.738,5.846-76.216,1.01c21.725-10.609,52.543-12.197,83.578-13.568c0.288-19.776-23.096-17.178-40.778-15.662  c-30.818,2.599-73.474,11.548-89.785,21.941c-5.341,3.464-11.332,11.98-11.476,17.755c-0.794,22.951,35.726,30.602,56.368,37.603  c19.92,6.712,37.387,10.609,58.461,13.568c12.053,1.66,22.663,6.856,34.428,8.301c18.837,2.525,44.242,1.01,62.719,4.258  c5.485,0.938,10.971,1.371,16.672,1.516l0,0l-0.144-0.649c8.806,0.217,17.321-0.145,25.55-1.588  c18.477-3.176,43.882-1.732,62.719-4.114c11.765-1.588,22.375-6.712,34.428-8.372c21.075-3.031,38.541-6.929,58.461-13.568  c20.642-6.929,57.234-14.651,56.368-37.603c-0.145-5.847-6.063-14.363-11.476-17.755c-12.559-8.084-40.634-15.157-66.978-19.199  c-10.538-1.588-31.829-6.351-35.582,8.445c-2.454,9.671,13.641,7.578,18.909,7.938C371.133,530.265,371.422,530.265,371.638,530.337  L371.638,530.337z"/>
</svg>